<svg xmlns="http://www.w3.org/2000/svg" version="1.1" xmlns:xlink="http://www.w3.org/1999/xlink" xmlns:svgjs="http://svgjs.dev/svgjs" width="1000" height="1000"><g clip-path="url(#SvgjsClipPath1103)"><rect width="1000" height="1000" fill="#ffffff"></rect><g transform="matrix(2.5,0,0,2.5,0,0)"><svg xmlns="http://www.w3.org/2000/svg" version="1.1" xmlns:xlink="http://www.w3.org/1999/xlink" xmlns:svgjs="http://svgjs.dev/svgjs" width="400" height="400"><svg id="svg" version="1.1" xmlns="http://www.w3.org/2000/svg" xmlns:xlink="http://www.w3.org/1999/xlink" width="400" height="400" viewBox="0, 0, 400,400"><g id="svgg"><path id="path0" d="M0.000 144.531 L 0.000 289.063 44.531 289.063 L 89.063 289.063 89.063 168.931 L 89.063 48.800 155.176 48.941 C 226.598 49.094,223.626 49.012,236.719 51.198 C 288.253 59.806,317.115 90.631,318.623 138.672 C 319.924 180.116,303.422 208.986,268.397 226.543 C 264.364 228.565,263.704 229.023,263.994 229.598 C 264.182 229.969,271.327 243.501,279.872 259.668 L 295.407 289.063 347.704 289.063 L 400.000 289.063 400.000 144.531 L 400.000 0.000 200.000 0.000 L 0.000 0.000 0.000 144.531 M153.125 147.081 L 153.125 193.419 182.715 193.258 C 214.317 193.085,215.152 193.038,222.852 191.001 C 243.928 185.424,255.438 168.765,254.553 145.117 C 253.730 123.113,243.561 108.654,225.156 103.320 C 217.159 101.002,218.049 101.055,184.277 100.892 L 153.125 100.742 153.125 147.081 M153.125 267.185 L 153.125 289.063 189.648 289.063 C 209.736 289.063,226.172 289.000,226.172 288.923 C 226.172 288.846,221.178 279.046,215.074 267.146 L 203.976 245.508 178.550 245.407 L 153.125 245.307 153.125 267.185 " stroke="none" fill="#448ccc" fill-rule="evenodd"></path><path id="path1" d="M89.453 203.516 L 89.453 358.203 121.289 358.203 L 153.125 358.203 153.125 301.560 L 153.125 244.916 178.550 245.017 L 203.974 245.117 215.186 266.992 C 221.353 279.023,234.379 304.468,244.134 323.535 L 261.870 358.203 296.169 358.203 L 330.469 358.203 330.469 356.860 C 330.469 355.841,326.351 347.750,313.422 323.364 C 304.046 305.680,288.947 277.192,279.869 260.059 L 263.362 228.906 269.197 225.922 C 304.320 207.960,320.403 178.512,318.314 135.990 C 315.933 87.505,284.598 57.254,229.688 50.429 C 217.914 48.965,211.041 48.828,149.371 48.828 L 89.453 48.828 89.453 203.516 M212.556 100.786 C 238.571 103.327,252.643 117.260,254.681 142.496 C 256.605 166.313,245.689 183.982,225.000 190.541 C 216.851 193.124,216.974 193.116,183.496 193.264 L 153.125 193.399 153.125 146.895 L 153.125 100.391 180.818 100.391 C 196.566 100.391,210.256 100.561,212.556 100.786 " stroke="none" fill="#fbfbfb" fill-rule="evenodd"></path><path id="path2" d="M0.000 344.531 L 0.000 400.000 200.000 400.000 L 400.000 400.000 400.000 344.531 L 400.000 289.063 347.646 289.063 L 295.292 289.063 295.883 290.205 C 296.208 290.833,304.123 305.785,313.471 323.432 C 326.357 347.756,330.469 355.842,330.469 356.860 L 330.469 358.203 296.169 358.203 L 261.870 358.203 244.174 323.633 L 226.477 289.063 189.801 289.063 L 153.125 289.063 153.125 323.633 L 153.125 358.203 121.289 358.203 L 89.453 358.203 89.453 323.633 L 89.453 289.063 44.727 289.063 L 0.000 289.063 0.000 344.531 " stroke="none" fill="#ecac4c" fill-rule="evenodd"></path><path id="path3" d="M89.255 168.945 C 89.255 235.117,89.300 262.246,89.355 229.231 C 89.411 196.216,89.411 142.075,89.355 108.918 C 89.300 75.761,89.255 102.773,89.255 168.945 M214.751 49.104 C 215.237 49.198,215.940 49.194,216.313 49.097 C 216.687 48.999,216.289 48.922,215.430 48.927 C 214.570 48.931,214.265 49.011,214.751 49.104 M166.923 100.683 C 174.620 100.743,187.100 100.743,194.658 100.683 C 202.215 100.624,195.918 100.576,180.664 100.576 C 165.410 100.576,159.227 100.624,166.923 100.683 M241.992 112.891 C 242.831 113.750,243.606 114.453,243.713 114.453 C 243.821 114.453,243.222 113.750,242.383 112.891 C 241.544 112.031,240.769 111.328,240.662 111.328 C 240.554 111.328,241.153 112.031,241.992 112.891 M318.450 136.328 C 318.450 137.080,318.530 137.388,318.629 137.012 C 318.727 136.636,318.727 136.021,318.629 135.645 C 318.530 135.269,318.450 135.576,318.450 136.328 M318.458 148.633 C 318.462 149.492,318.542 149.798,318.636 149.312 C 318.729 148.826,318.726 148.123,318.628 147.749 C 318.530 147.376,318.454 147.773,318.458 148.633 M207.910 193.238 C 208.286 193.336,208.901 193.336,209.277 193.238 C 209.653 193.140,209.346 193.059,208.594 193.059 C 207.842 193.059,207.534 193.140,207.910 193.238 M162.109 245.207 C 185.927 245.477,204.206 245.481,204.041 245.215 C 203.942 245.054,192.401 244.962,178.395 245.012 C 164.389 245.062,157.061 245.149,162.109 245.207 " stroke="none" fill="#6ca3d4" fill-rule="evenodd"></path><path id="path4" d="M318.471 139.258 C 318.474 140.332,318.550 140.725,318.640 140.131 C 318.729 139.538,318.727 138.659,318.634 138.178 C 318.542 137.698,318.468 138.184,318.471 139.258 M318.476 145.313 C 318.476 146.494,318.550 146.978,318.639 146.387 C 318.729 145.796,318.729 144.829,318.639 144.238 C 318.550 143.647,318.476 144.131,318.476 145.313 M254.809 147.461 C 254.811 148.750,254.884 149.230,254.971 148.528 C 255.058 147.826,255.056 146.771,254.967 146.184 C 254.877 145.597,254.806 146.172,254.809 147.461 " stroke="none" fill="#68c4d0" fill-rule="evenodd"></path></g></svg></svg></g></g><defs><clipPath id="SvgjsClipPath1103"><rect width="1000" height="1000" x="0" y="0" rx="150" ry="150"></rect></clipPath></defs></svg>